Coordinates
version=1
nRows=27
nColumns=12
inDegrees=yes

Units are S.I. units (second, meters, Newtons, ...)
Angles are in degrees

endheader
time	SC_y	SC_z	SC_x	AC_y	AC_z	AC_x	GH_y	GH_z	GH_yy	EL_x	PS_y
       0.0              -42.55          26.25          15.67          68.65         -15.08          14.87          -33.7          27.55          34.33           26.6          64.98
   0.03299              -42.55          26.25          15.68          68.65         -15.08          14.87          -33.7          27.55          34.33          26.61          64.97
   0.06597              -42.55          26.25          15.69          68.65         -15.08          14.87         -33.69          27.55          34.33          26.62          64.97
   0.09896              -42.55          26.24          15.69          68.65         -15.08          14.86         -33.69          27.54          34.33          26.63          64.96
    0.1319              -42.55          26.24           15.7          68.64         -15.08          14.86         -33.68          27.53          34.33          26.64          64.96
    0.1649              -42.55          26.24          15.71          68.64         -15.08          14.86         -33.68          27.53          34.33          26.66          64.95
    0.1979              -42.55          26.24          15.72          68.64         -15.08          14.86         -33.67          27.52          34.33          26.67          64.95
    0.2309              -42.56          26.24          15.73          68.63         -15.08          14.85         -33.66          27.52          34.33          26.68          64.94
    0.2639              -42.56          26.24          15.74          68.63         -15.08          14.85         -33.65          27.51          34.33           26.7          64.94
    0.2969              -42.56          26.23          15.75          68.63         -15.08          14.85         -33.64           27.5          34.33          26.71          64.93
    0.3299              -42.56          26.23          15.76          68.62         -15.08          14.84         -33.64          27.49          34.33          26.73          64.92
    0.3628              -42.56          26.23          15.77          68.62         -15.08          14.84         -33.63          27.49          34.33          26.75          64.92
    0.3958              -42.57          26.23          15.78          68.61         -15.08          14.83         -33.61          27.48          34.33          26.77          64.91
    0.4288              -42.57          26.22           15.8          68.61         -15.08          14.83          -33.6          27.47          34.33          26.79           64.9
    0.4618              -42.57          26.22          15.81           68.6         -15.08          14.82         -33.59          27.45          34.33          26.82          64.89
    0.4948              -42.57          26.22          15.83          68.59         -15.08          14.82         -33.58          27.44          34.33          26.84          64.88
    0.5278              -42.58          26.21          15.85          68.59         -15.08          14.81         -33.56          27.43          34.33          26.87          64.87
    0.5608              -42.58          26.21          15.87          68.58         -15.08          14.81         -33.55          27.42          34.33           26.9          64.85
    0.5937              -42.58           26.2          15.89          68.57         -15.08           14.8         -33.53           27.4          34.34          26.93          64.84
    0.6267              -42.59           26.2          15.91          68.56         -15.08          14.79         -33.51          27.38          34.34          26.97          64.82
    0.6597              -42.59          26.19          15.94          68.55         -15.08          14.78         -33.49          27.37          34.34          27.01          64.81
    0.6927               -42.6          26.19          15.97          68.54         -15.08          14.77         -33.47          27.35          34.34          27.05          64.79
    0.7257               -42.6          26.18           16.0          68.53         -15.08          14.76         -33.44          27.32          34.34           27.1          64.77
    0.7587              -42.61          26.17          16.03          68.51         -15.08          14.75         -33.41           27.3          34.34          27.15          64.75
    0.7917              -42.62          26.16          16.07           68.5         -15.08          14.74         -33.38          27.27          34.34          27.21          64.72
    0.8246              -42.62          26.16          16.11          68.48         -15.08          14.72         -33.34          27.24          34.34          27.27           64.7
    0.8576              -42.63          26.15          16.16          68.46         -15.07           14.7          -33.3          27.21          34.34          27.35          64.66
